# xmcd
#
# Track frame offsets:
#	150
#	17551
#	36060
#	56035
#	71902
#	98303
#	113914
#	131811
#	146048
#	162840
#	177960
#	195619
#	211903
#
# Disc length: 3083 seconds
#
# Revision: 0
# Processed by: cddbd v1.5.2PL0 Copyright (c) Steve Scherf et al.
# Submitted via: EasyCDDAExtractor 16.0.1.1
#
DISCID=b60c090d
DTITLE=Traveling-Bones - Amazing Grace
DYEAR=2012
DGENRE=Country
TTITLE0=We Gonna Rock This City
TTITLE1=Bitch
TTITLE2=Come With Me
TTITLE3=Blue Highways
TTITLE4=Whiskey In The Jar
TTITLE5=I Will Always Be There For You
TTITLE6=Home
TTITLE7=Head Up High
TTITLE8=Sun In The Winter
TTITLE9=Let´s Work Togehther
TTITLE10=This Is Heaven
TTITLE11=Last Cowboy From NYC
TTITLE12=Amazing Grace
EXTD=
EXTT0=
EXTT1=
EXTT2=
EXTT3=
EXTT4=
EXTT5=
EXTT6=
EXTT7=
EXTT8=
EXTT9=
EXTT10=
EXTT11=
EXTT12=
PLAYORDER=
